<?xml version="1.0" encoding="utf-8"?>
<svg version="1.1" id="Layer_1" xmlns="http://www.w3.org/2000/svg" x="0px" y="0px" width="100%" viewBox="0 0 575 262" enable-background="new 0 0 575 262">
  <path fill="#F5F5F5" opacity="1.000000" stroke="none" d=" M119.256020,211.001556 C115.090286,211.717285 113.327423,210.046799 111.785072,206.632858 C94.064728,167.409500 76.259697,128.223282 58.194904,89.157722 C55.034161,82.322540 53.136688,75.579811 53.766289,68.062935 C54.067631,64.465149 53.818161,60.821220 53.818161,56.776745 C61.894249,56.776745 69.519714,56.592770 77.119682,56.950485 C78.449257,57.013062 80.174477,59.126804 80.869011,60.673893 C93.640373,89.122559 106.279556,117.630554 118.953835,146.122818 C122.643036,154.416306 126.354393,162.699936 130.380661,171.716019 C138.465820,153.678360 146.232483,136.389618 153.966721,119.086349 C162.704086,99.538811 171.454987,79.997025 180.082230,60.400887 C181.232361,57.788437 182.532410,56.557655 185.600922,56.673771 C192.562454,56.937191 199.540802,56.756729 207.153091,56.756729 C206.452881,67.646965 208.617096,78.208206 203.093719,88.566093 C196.537949,100.859985 191.314545,113.869987 185.685898,126.645500 C184.981567,128.244156 184.640610,130.602234 185.292435,132.104706 C190.769104,144.728683 196.512131,157.237213 202.203796,169.767410 C202.388977,170.175079 202.882416,170.442719 203.497192,171.027908 C213.700775,148.242584 223.827225,125.645485 233.939590,103.042084 C240.312851,88.796440 246.745697,74.576355 252.955872,60.259811 C254.141113,57.527393 255.606781,56.604164 258.518982,56.689919 C265.489166,56.895157 272.469452,56.756214 280.065979,56.756214 C279.404999,67.615288 281.027008,77.976059 276.029205,88.529625 C257.538391,127.575562 239.932770,167.040665 221.988342,206.345459 C221.300430,207.852295 220.549637,209.330399 219.741623,211.000748 C209.554092,211.000748 199.402023,211.130524 189.261185,210.851440 C187.848679,210.812561 185.915268,209.044968 185.200378,207.595566 C179.697937,196.439529 174.440674,185.162613 169.096420,173.928421 C168.318207,172.292526 167.481918,170.684265 166.457764,168.633118 C160.482544,181.685989 154.594711,194.289780 148.975861,207.012375 C147.648010,210.018967 146.141891,211.242401 142.712006,211.100449 C135.060883,210.783844 127.387680,211.001556 119.256020,211.001556 z"/>
  <path fill="#F5F5F5" opacity="1.000000" stroke="none" d=" M525.955811,108.108826 C537.353271,124.569504 532.997131,140.231720 514.087769,150.519989 C516.597961,151.714630 518.916565,152.703094 521.128296,153.890579 C530.902954,159.138748 535.289490,167.464783 535.189026,178.433090 C535.083679,189.938766 531.294189,199.901779 520.445251,204.667557 C512.858643,208.000259 504.263092,210.322006 496.024658,210.635193 C474.589752,211.450043 453.103302,210.909149 431.301697,210.909149 C431.301697,172.608551 431.301697,134.400970 431.301697,96.038895 C431.591034,95.913765 432.024384,95.560928 432.455597,95.563583 C453.932617,95.695427 475.419800,95.513657 496.881897,96.161392 C507.661652,96.486740 517.947571,99.423157 525.955811,108.108826 M500.599762,185.085754 C507.958466,175.223480 504.222687,164.379547 492.099426,162.942474 C482.331696,161.784607 472.317200,162.707977 462.408691,162.707977 C462.408691,171.328262 462.408691,180.013382 462.408691,188.831757 C471.778595,188.831757 480.765442,189.126724 489.715698,188.683594 C493.195648,188.511292 496.593109,186.673523 500.599762,185.085754 M488.017578,141.974258 C488.995300,141.793915 489.992706,141.685013 490.947632,141.421906 C498.301758,139.395660 501.647675,134.875153 500.827698,128.126511 C500.049866,121.724403 495.818695,118.123405 488.245941,117.958046 C479.655060,117.770454 471.056946,117.914734 462.365234,117.914734 C462.365234,126.198402 462.365234,134.042007 462.365234,142.015762 C470.847260,142.015762 478.979553,142.015762 488.017578,141.974258 z"/>
  <path fill="#F5F5F5" opacity="1.000000" stroke="none" d=" M292.034882,134.000000 C292.034882,121.014320 292.034882,108.528641 292.034882,95.756439 C302.396515,95.756439 312.490265,95.756439 323.190857,95.756439 C323.190857,125.896812 323.190857,155.946533 323.190857,186.477921 C342.386017,186.477921 360.985687,186.477921 379.789307,186.477921 C379.789307,194.744034 379.789307,202.525635 379.789307,210.655029 C350.791321,210.655029 321.730377,210.655029 292.034882,210.655029 C292.034882,185.347672 292.034882,159.923828 292.034882,134.000000 z"/>
  <path fill="#F5F5F5" opacity="1.000000" stroke="none" d=" M388.810089,124.999924 C388.810089,115.019402 388.810089,105.538887 388.810089,95.765419 C399.234924,95.765419 409.320557,95.765419 419.704376,95.765419 C419.704376,134.051773 419.704376,172.265427 419.704376,210.740356 C409.601257,210.740356 399.522552,210.740356 388.810089,210.740356 C388.810089,182.320389 388.810089,153.910156 388.810089,124.999924 z"/>
  <path opacity="1.000000" stroke="none" d=" M414.413422,84.560509 C404.108307,90.220093 393.881073,87.672852 388.806122,78.484261 C384.082306,69.931412 387.249817,59.219776 395.912018,54.454224 C403.777740,50.126858 413.703308,52.520596 418.883392,59.994232 C424.367523,67.906418 422.732788,77.422440 414.413422,84.560509 z" style="fill: rgb(181, 10, 158);"/>
</svg>