<svg width="1203" height="1203" viewBox="0 0 1203 1203" fill="none" xmlns="http://www.w3.org/2000/svg">
<rect width="1203" height="1203" rx="209" fill="#4B464A"/>
<rect width="699.857" height="136.777" rx="20" transform="matrix(0.442132 -0.89695 0.828376 0.560173 693.281 906.383)" fill="white"/>
<path d="M1088.27 258.312C1095.09 302.054 1124.05 329.888 1108.28 370.959L994.975 294.34C1017.7 258.773 1056.05 273.399 1088.27 258.312Z" fill="white"/>
<rect width="400.113" height="136.777" rx="20" transform="matrix(-0.442132 -0.89695 0.828376 -0.560173 715.021 983.002)" fill="white"/>
<path d="M578.244 552.284C607.799 554.67 641.556 536.557 655.844 556.474L542.541 633.093C535.67 608.621 567.452 580.663 578.244 552.284Z" fill="white"/>
<rect x="719.415" y="942.626" width="82.2228" height="33.3729" fill="white"/>
<rect width="699.857" height="136.777" rx="20" transform="matrix(0.442132 -0.89695 0.828376 0.560173 376.596 906.381)" fill="white"/>
<path d="M771.585 258.31C778.402 302.051 807.368 329.885 791.593 370.956L678.29 294.337C701.014 258.77 739.367 273.397 771.585 258.31Z" fill="white"/>
<rect width="699.857" height="136.777" rx="20" transform="matrix(-0.442132 -0.89695 0.828376 -0.560173 398.337 983)" fill="white"/>
<path d="M116.651 258.309C152.402 273.265 187.466 257.801 209.946 294.337L96.643 370.956C81.7065 330.123 111.698 298.533 116.651 258.309Z" fill="white"/>
<rect x="402.73" y="942.623" width="82.2228" height="33.3729" fill="white"/>
</svg>
